PathFileType	4	(X/Y/Z)	C:\Users\Biomechanik\SynologyDrive\AlexP\Athlete_03\Athlete_3_25_03_31\Squat_bw_01\marker_experimental.trc
DataRate	CameraRate	NumFrames	NumMarkers	Units	OrigDataRate	OrigDataStartFrame	OrigNumFrames
200.000000	200.000000	4	55	mm	200.000000	619	708
Frame#	Time	BL			BR			GLAB			RFHD			LFHD			C7			T6			SPINMOL			SPINM2			SPINM3			T12			BELTOL			BELT2			BELT3			SACROL			SACR2			SACR3			LTHOL			LTH2			LTH3			LSHAOL			LSHA2			LSHA3			LHEE			LTOE			LM5			RTHOL			RTH2			RTH3			RSHAOL			RSHA2			RSHA3			RHEE			RTOE			RM5			STRN			XIPH			LACR			LUAOL			LUA2			LUA3			LLAOL			LLA2			LLA3			LWRR			LWRU			RACR			RUAOL			RUA2			RUA3			RLAOL			RLA2			RLA3			RWRR			RWRU			
		X1	Y1	Z1	X2	Y2	Z2	X3	Y3	Z3	X4	Y4	Z4	X5	Y5	Z5	X6	Y6	Z6	X7	Y7	Z7	X8	Y8	Z8	X9	Y9	Z9	X10	Y10	Z10	X11	Y11	Z11	X12	Y12	Z12	X13	Y13	Z13	X14	Y14	Z14	X15	Y15	Z15	X16	Y16	Z16	X17	Y17	Z17	X18	Y18	Z18	X19	Y19	Z19	X20	Y20	Z20	X21	Y21	Z21	X22	Y22	Z22	X23	Y23	Z23	X24	Y24	Z24	X25	Y25	Z25	X26	Y26	Z26	X27	Y27	Z27	X28	Y28	Z28	X29	Y29	Z29	X30	Y30	Z30	X31	Y31	Z31	X32	Y32	Z32	X33	Y33	Z33	X34	Y34	Z34	X35	Y35	Z35	X36	Y36	Z36	X37	Y37	Z37	X38	Y38	Z38	X39	Y39	Z39	X40	Y40	Z40	X41	Y41	Z41	X42	Y42	Z42	X43	Y43	Z43	X44	Y44	Z44	X45	Y45	Z45	X46	Y46	Z46	X47	Y47	Z47	X48	Y48	Z48	X49	Y49	Z49	X50	Y50	Z50	X51	Y51	Z51	X52	Y52	Z52	X53	Y53	Z53	X54	Y54	Z54	X55	Y55	Z55	

620	3.095	960.7034912109375	36.21314239501965	-1933.53857421875	1063.18896484375	32.89635848999023	86.643798828125	453.8163452148438	1452.365844726562	-1195.010375976562	401.9681701660156	1475.377197265625	-1131.802368164062	409.6891174316406	1474.570678710938	-1267.322387695312	210.0616760253906	1312.014526367188	-1201.819946289062	113.8410186767578	1173.6181640625	-1209.594848632812	100.4664840698242	1143.840209960938	-1232.031127929688	90.99655914306641	1135.920776367188	-1183.53125	76.70510101318359	1083.122680664062	-1220.596923828125	59.90623474121094	1023.936889648438	-1221.37353515625	26.88680267333984	1006.732055664063	-1239.183837890625	25.4863395690918	1004.177368164063	-1188.627807617188	-1.06746518611908	950.2144775390626	-1218.525268554688	-28.59501647949219	851.1206054687501	-1242.523559570312	-28.48640632629395	849.2021484375001	-1190.968627929688	-39.83146286010742	790.0570678710939	-1218.679321289062	134.1527862548828	602.9051513671876	-1472.181274414062	136.0289459228516	524.3164062500001	-1462.337890625	167.2597351074219	554.1187133789064	-1488.246337890625	194.9992828369141	323.815155029297	-1573.895874023438	142.1868133544922	269.0768432617189	-1549.857421875	188.1864471435547	262.237030029297	-1570.260009765625	109.6186828613281	69.75439453125009	-1475.827514648438	314.4326171875	50.13330078125009	-1546.406127929688	238.9101104736328	27.45471382141123	-1627.86474609375	100.9230117797852	603.1494140625001	-960.7982177734375	158.6436767578125	600.7216796875	-905.5177001953125	140.6114959716797	563.4940185546876	-933.0224609375	159.4683532714844	340.5357666015626	-854.444091796875	175.5302276611328	265.1173400878907	-840.1021728515625	139.4694213867188	283.2034301757813	-868.60595703125	91.74211120605469	64.26579284667974	-964.7979736328125	285.3999633789062	48.27440261840826	-877.9574584960938	200.8069915771484	38.15251159667974	-801.9829711914062	360.4980773925781	1182.335693359375	-1206.620971679688	340.8157348632812	1035.366943359375	-1207.484252929688	273.5584411621094	1280.390991210938	-1367.966186523438	196.8303527832031	1180.75	-1486.766235351562	155.2617797851562	1132.836547851562	-1506.0712890625	198.3562622070312	1134.847290039062	-1533.557739257812	227.0196838378906	1078.671264648438	-1623.342163085938	305.5430908203125	1069.32763671875	-1626.297485351562	278.7272338867188	1112.014526367188	-1621.404052734375	352.3006896972656	1185.291137695312	-1614.815673828125	348.322998046875	1184.024047851562	-1536.93115234375	270.1643371582031	1272.123168945312	-1050.926025390625	198.3963317871094	1176.869018554688	-936.1066284179686	192.4425659179688	1135.485473632812	-884.4686279296874	159.0899353027344	1125.42041015625	-923.5610961914061	242.6903991699219	1097.1728515625	-780.1790771484374	249.5294799804688	1175.63330078125	-791.6917114257811	286.0267333984375	1142.251342773438	-783.3272705078124	330.6634216308594	1223.660522460938	-800.9747924804686	328.5234069824219	1220.9609375	-879.0971069335936	
621	3.1	960.7037963867188	36.21202468872082	-1933.537963867188	1063.18896484375	32.89654541015624	86.64417266845703	452.0948181152344	1458.225219726562	-1194.998901367188	400.1643676757812	1481.112426757812	-1131.8037109375	407.9589538574219	1480.337768554688	-1267.32958984375	208.8821716308594	1316.984741210938	-1201.922729492188	113.4240646362305	1177.965576171875	-1209.643188476562	100.2327880859375	1148.106689453125	-1232.067016601562	90.78971099853516	1140.145385742188	-1183.5703125	76.88410186767578	1087.252563476562	-1220.604248046875	60.35823822021484	1028.029296875	-1221.376708984375	27.45925903320312	1010.842895507813	-1239.1552734375	26.08688926696777	1008.273132324219	-1188.602783203125	-0.2917992174625397	954.2238769531251	-1218.508178710938	-27.4771671295166	855.5401000976564	-1242.50244140625	-27.39201736450195	853.6008911132814	-1190.949462890625	-38.78334426879883	794.4801025390626	-1218.685180664062	133.6302185058594	605.8737182617189	-1471.279418945312	134.6001434326172	527.3241577148439	-1460.995239257812	166.2149810791016	556.6378173828126	-1487.011962890625	193.3703002929688	324.412811279297	-1572.594970703125	140.8759918212891	269.2779235839845	-1548.762451171875	186.8999481201172	262.7776489257814	-1569.231689453125	109.5478439331055	69.72526550292977	-1475.87744140625	314.3969421386719	50.18557739257822	-1546.42431640625	238.9121551513672	27.46344757080088	-1627.857788085938	100.4934844970703	606.3453979492189	-961.95556640625	158.2590484619141	602.9644775390625	-906.7742919921875	139.7716827392578	566.1011352539064	-934.4586181640625	157.8485260009766	341.1606140136719	-856.0422973632812	174.2704467773438	265.9138183593751	-841.278076171875	138.1606750488281	283.6490478515626	-869.9107055664062	91.63021087646484	64.23648071289068	-964.7413330078125	285.3647766113281	48.31826019287115	-877.9442138671875	200.7875671386719	38.14923858642583	-801.9761962890625	359.9259948730469	1188.158081054688	-1206.720458984375	341.0681457519531	1041.070556640625	-1207.538696289062	272.302978515625	1285.669067382812	-1368.026611328125	195.9359283447266	1185.788818359375	-1486.821044921875	154.5792083740234	1137.687255859375	-1506.124145507812	197.5894165039062	1139.946411132812	-1533.675170898438	226.4471435546875	1083.951049804688	-1623.530029296875	305.0022888183594	1074.954833984375	-1626.599487304688	278.0080261230469	1117.513671875	-1621.623291015625	351.2797241210938	1191.093383789062	-1615.052124023438	347.3753356933594	1189.77587890625	-1537.169067382812	269.121826171875	1277.454833984375	-1051.07666015625	197.6774597167969	1182.052124023438	-936.1863403320311	191.8643035888672	1140.6845703125	-884.5174560546874	158.5652770996094	1130.454467773438	-923.5977783203124	242.1660614013672	1102.655029296875	-780.1353149414061	248.7032928466797	1181.135620117188	-791.7039184570311	285.3250427246094	1147.903198242188	-783.2894897460936	329.6427612304688	1229.472778320312	-800.9406738281249	327.5908508300781	1226.692993164062	-879.0730590820311	
622	3.105	960.7041015625	36.21107101440442	-1933.537353515625	1063.18896484375	32.89656829833984	86.64455413818359	450.3759765625	1463.96142578125	-1195.00048828125	398.3688354492188	1486.733276367188	-1131.818725585938	406.2332763671875	1485.983764648438	-1267.350952148438	207.6968994140625	1321.847778320312	-1202.02734375	113.0114059448242	1182.208374023438	-1209.693359375	100.0062026977539	1152.266845703125	-1232.10546875	90.58607482910156	1144.266479492188	-1183.608276367188	77.0670166015625	1091.2822265625	-1220.613037109375	60.81475448608398	1032.023315429688	-1221.381103515625	28.03669166564941	1014.854309082031	-1239.123901367188	26.69245719909668	1012.270812988281	-1188.575805664062	0.4925126731395721	958.1355590820314	-1218.486206054688	-26.35452079772949	859.8666381835939	-1242.472045898438	-26.2889461517334	857.9064331054689	-1190.921264648438	-37.73038864135742	798.8107910156251	-1218.682006835938	133.0856170654297	608.7727661132814	-1470.363891601562	133.1607208251953	530.2791137695314	-1459.64208984375	165.1530303955078	559.1005859375001	-1485.764038085938	191.723876953125	324.9972229003907	-1571.288452148438	139.5537872314453	269.4669189453126	-1547.66015625	185.5981597900391	263.3080139160157	-1568.197143554688	109.4745788574219	69.69522094726571	-1475.931030273438	314.3613586425781	50.24586868286142	-1546.443237304688	238.9140319824219	27.47125053405772	-1627.8515625	100.0729751586914	609.4744873046876	-963.1170043945312	157.8730621337891	605.1398315429688	-908.0413818359375	138.9360198974609	568.6486816406251	-935.9049682617188	156.2238616943359	341.7715148925782	-857.6588134765625	173.0010986328125	266.7015075683594	-842.4568481445312	136.8505554199219	284.0822143554688	-871.2312622070312	91.51781463623047	64.20698547363287	-964.68408203125	285.3308410644531	48.36035919189459	-877.9354858398438	200.7688751220703	38.14736557006841	-801.9699096679688	359.3457946777344	1193.876220703125	-1206.821411132812	341.3177795410156	1046.672729492188	-1207.59423828125	271.0398254394531	1290.836303710938	-1368.087646484375	195.0421752929688	1190.71240234375	-1486.874755859375	153.8952484130859	1142.422973632812	-1506.177490234375	196.8240966796875	1144.928955078125	-1533.790405273438	225.8733367919922	1089.11279296875	-1623.712524414062	304.4577026367188	1080.46533203125	-1626.897583007812	277.2856140136719	1122.895263671875	-1621.8388671875	350.2522888183594	1196.778686523438	-1615.287353515625	346.4302673339844	1195.409545898438	-1537.40869140625	268.0725708007812	1282.67919921875	-1051.229248046875	196.9632568359375	1187.126586914062	-936.2681884765624	191.2871704101562	1145.776733398438	-884.5664672851561	158.0440368652344	1135.38134765625	-923.6361694335936	241.6472930908203	1108.025756835938	-780.0966796874999	247.8820953369141	1186.525756835938	-791.7213745117186	284.6277160644531	1153.443359375	-783.2578124999999	328.6224365234375	1235.173950195312	-800.9125976562499	326.6692199707031	1232.31005859375	-879.0522460937499	
623	3.11	960.7044067382812	36.21037292480481	-1933.53662109375	1063.188842773438	32.89645767211913	86.6448974609375	448.6609497070312	1469.571044921875	-1195.014770507812	396.5824890136719	1492.236572265625	-1131.84716796875	404.51220703125	1491.505126953125	-1267.385375976562	206.5055389404297	1326.600219726562	-1202.132934570312	112.6026229858398	1186.344116210938	-1209.7451171875	99.78691101074219	1156.318359375	-1232.146484375	90.38527679443359	1148.281372070312	-1183.645751953125	77.25237274169922	1095.20947265625	-1220.623901367188	61.27485275268555	1035.91650390625	-1221.386962890625	28.61801910400391	1018.763061523438	-1239.090087890625	27.3023509979248	1016.167419433594	-1188.547119140625	1.284652709960938	961.9465332031251	-1218.459838867188	-25.22809982299805	864.0952758789064	-1242.432373046875	-25.17748260498047	862.1142578125001	-1190.883666992188	-36.67337036132812	803.0441284179689	-1218.669311523438	132.5196685791016	611.5999145507814	-1469.434936523438	131.7141723632812	533.1785278320314	-1458.276977539062	164.0753021240234	561.5043334960939	-1484.502807617188	190.0623931884766	325.5672302246095	-1569.976928710938	138.2223052978516	269.643035888672	-1546.551025390625	184.283203125	263.8269653320314	-1567.1572265625	109.3990249633789	69.66405487060555	-1475.98828125	314.3260498046875	50.31371688842783	-1546.462524414062	238.9157257080078	27.47819900512705	-1627.845947265625	99.66260528564453	612.5351562500001	-964.280517578125	157.4874725341797	607.2462768554688	-909.3173217773438	138.1058959960938	571.1348876953126	-937.3595581054688	154.597900390625	342.3666687011719	-859.2913208007812	171.7256927490234	267.4786071777344	-843.6375122070312	135.5421600341797	284.5014343261719	-872.5655517578125	91.40549468994141	64.17704010009771	-964.626708984375	285.2982788085938	48.40063858032232	-877.9319458007812	200.7514190673828	38.14696502685552	-801.9647216796875	358.7574462890625	1199.485961914062	-1206.923461914062	341.5639953613281	1052.169555664062	-1207.650756835938	269.7691650390625	1295.889770507812	-1368.14892578125	194.1487884521484	1195.517456054688	-1486.926635742188	153.2105560302734	1147.0390625	-1506.229248046875	196.0601348876953	1149.791625976562	-1533.90234375	225.2970581054688	1094.152221679688	-1623.88818359375	303.9085083007812	1085.854736328125	-1627.1904296875	276.5593566894531	1128.155029296875	-1622.049926757812	349.2181701660156	1202.34228515625	-1615.520751953125	345.4886474609375	1200.920288085938	-1537.6494140625	267.0153503417969	1287.792846679688	-1051.382446289062	196.2523193359375	1192.087158203125	-936.3520507812499	190.7108764648438	1150.757080078125	-884.6150512695311	157.5267181396484	1140.194946289062	-923.6765747070311	241.1347808837891	1113.280151367188	-780.0635986328124	247.0652923583984	1191.799194335938	-791.7442016601561	283.9347229003906	1158.867431640625	-783.2316894531249	327.6017150878906	1240.760131835938	-800.8900146484374	325.7582397460938	1237.80859375	-879.0343627929686	
